<svg xmlns="http://www.w3.org/2000/svg" xmlns:xlink="http://www.w3.org/1999/xlink" width="1440" height="753" viewBox="0 0 1440 753">
  <defs>
    <clipPath id="clip-path">
      <rect id="Rectangle_553" data-name="Rectangle 553" width="1440" height="753" transform="translate(0 1681)" fill="#21275b"/>
    </clipPath>
  </defs>
  <g id="Group_1388" data-name="Group 1388" transform="translate(0 -1618)">
    <g id="Group_1311" data-name="Group 1311" transform="translate(0 18.098)">
      <g id="Group_1305" data-name="Group 1305" transform="translate(0 1616)">
        <rect id="Rectangle_459" data-name="Rectangle 459" width="1440" height="606" transform="translate(0 -0.098)" fill="#21275b"/>
      </g>
    </g>
    <g id="Mask_Group_11" data-name="Mask Group 11" transform="translate(0 -63)" clip-path="url(#clip-path)">
      <g id="Group_1353" data-name="Group 1353" transform="translate(-134.486 1549.134)" opacity="0.058">
        <path id="Path_6673" data-name="Path 6673" d="M862.8,73.63v9.54c.03,43.691-.5,87.4.271,131.073.618,34.754-10.55,64.971-31.227,92.25-15.086,19.894-32.7,37.391-50.895,54.376Q712.132,425.117,643.408,489.5c-.181.166-.347.377-.542.528-6.164,4.521-7.973,10.4-7.927,18.146.347,67.8-.256,135.609.467,203.4.362,34.03-10.565,63.419-30.911,89.959-13.654,17.814-29.479,33.578-46.087,48.574-22.184,20.014-44.64,39.727-66.87,59.7-6.345,5.7-12.283,11.861-18.432,17.784-1.191,1.145-2.5,2.185-4.6,4.009-.226-2.426-.452-3.8-.452-5.184q-.09-109.235-.2-218.47c-.06-24.053,6.933-45.967,18.854-66.539a232.908,232.908,0,0,1,39.32-50.307c23.194-22.591,47.1-44.46,70.653-66.689,10.595-9.992,20.964-20.225,31.649-30.112,3.813-3.527,5.26-7.34,5.23-12.539-.271-38.928.8-77.887-.663-116.755-1.567-41.626,13.232-76.4,38.883-107.833,14.513-17.784,31.363-33.171,47.986-48.845Q788.316,143.755,856.663,79c1.552-1.462,3.21-2.8,6.134-5.35Z" transform="translate(76.515 0)" fill="#fff"/>
        <path id="Path_6674" data-name="Path 6674" d="M785.718,269.143v8.214c.105,136.619-.347,273.253.678,409.872.3,40.677-12.735,75.114-37.9,105.965-16.247,19.909-34.573,37.768-53.321,55.25q-36.374,33.887-72.6,67.94c-.708.663-1.522,1.236-3.512,2.818-.2-3.6-.452-6.134-.452-8.681q-.068-58.393-.075-116.786c-.045-98.7.512-197.416-.452-296.1-.377-37.572,11.243-69.854,33.714-99.077,13.82-17.98,29.554-34.2,46.087-49.644,20.919-19.547,42.124-38.793,63.1-58.265,6.435-5.968,12.569-12.283,18.869-18.417,1.371-1.341,2.879-2.547,4.325-3.813.512.226,1.025.467,1.537.693Z" transform="translate(152.69 98.779)" fill="#fff"/>
        <path id="Path_6675" data-name="Path 6675" d="M484,404.4c.211,2.7.467,4.6.482,6.5.332,70.789.256,141.592,1.13,212.366.407,33.307-9.826,62.545-28.921,89.266-15.568,21.763-34.181,40.752-53.638,58.943-20.361,19.02-41.008,37.723-61.445,56.667-6.074,5.621-11.816,11.6-17.754,17.392-1.356,1.311-2.879,2.472-5.667,4.838v-9.54c-.3-69.282.045-138.578-1.191-207.86-.663-37.045,11.333-68.8,33.458-97.555,13.971-18.161,29.811-34.6,46.479-50.262q41.958-39.471,84.112-78.731A29.541,29.541,0,0,1,484,404.4Z" transform="translate(0 167.735)" fill="#fff"/>
        <path id="Path_6676" data-name="Path 6676" d="M936.188,403.76v10.987c.045,69.312-.452,138.638.347,207.935.407,34.452-10.158,64.5-30.127,91.918-14.709,20.2-32,38.039-50.1,55.115-19.547,18.432-39.562,36.366-59.259,54.648-9,8.349-17.693,17.03-27.264,26.284a49.633,49.633,0,0,1-.678-5.456q-.09-111.134-.151-222.253c-.03-19.487,4.687-37.738,13.142-55.16,10.309-21.25,24.37-39.938,40.963-56.471,22.757-22.667,46.464-44.4,69.764-66.524q18.56-17.633,37.12-35.3c1.583-1.492,3.21-2.939,6.255-5.712Z" transform="translate(229.205 167.41)" fill="#fff"/>
        <path id="Path_6677" data-name="Path 6677" d="M1086.464,267.915v9.4c0,35.146-.377,70.291.136,105.422.316,21.506-5.546,41.1-15.463,59.757-11.424,21.491-26.9,39.953-43.947,57.074-14.513,14.574-29.69,28.5-44.656,42.621q-29.027,27.376-58.189,54.6c-1.176,1.1-2.532,2.035-4.958,3.979v-9.329c.015-32.131.784-64.278-.136-96.379-1.025-35.658,11.122-66.313,32.041-94.239,15.418-20.587,33.518-38.672,52.206-56.215q39.788-37.369,79.7-74.617a32,32,0,0,1,3.271-2.095Z" transform="translate(305.387 98.515)" fill="#fff"/>
        <path id="Path_6678" data-name="Path 6678" d="M317.661,546.617c0-24.973-.738-48.544.226-72.055.814-19.909,8.53-38.039,18.583-55.115,12.72-21.6,28.951-40.405,46.931-57.632,22.833-21.883,46.283-43.1,69.387-64.7,10.067-9.419,19.894-19.08,30.006-28.816.528.723,1.266,1.266,1.281,1.824.09,21.582.648,43.179,0,64.745-.693,22.591-8.8,43.073-20.482,62.228-12.117,19.849-27.022,37.5-43.751,53.487-23.933,22.893-48.453,45.2-72.612,67.865-8.425,7.9-16.518,16.141-24.792,24.189-1.206,1.176-2.577,2.185-4.762,4.009Z" transform="translate(0.212 98.718)" fill="#fff"/>
      </g>
    </g>
  </g>
</svg>
